<svg width="24" height="25" viewBox="0 0 24 25" fill="none" xmlns="http://www.w3.org/2000/svg">
<path fill-rule="evenodd" clip-rule="evenodd" d="M13.8 4.18711C13.8 3.69005 14.2029 3.28711 14.7 3.28711H18.3C19.0161 3.28711 19.7028 3.57157 20.2092 4.07792C20.7155 4.58427 21 5.27102 21 5.98711V18.5871C21 19.3032 20.7155 19.99 20.2092 20.4963C19.7028 21.0026 19.0161 21.2871 18.3 21.2871H14.7C14.2029 21.2871 13.8 20.8842 13.8 20.3871C13.8 19.8901 14.2029 19.4871 14.7 19.4871H18.3C18.5387 19.4871 18.7676 19.3923 18.9364 19.2235C19.1052 19.0547 19.2 18.8258 19.2 18.5871V5.98711C19.2 5.74841 19.1052 5.5195 18.9364 5.35071C18.7676 5.18193 18.5387 5.08711 18.3 5.08711H14.7C14.2029 5.08711 13.8 4.68417 13.8 4.18711ZM9.5636 7.1507C9.91507 6.79923 10.4849 6.79923 10.8364 7.1507L15.3344 11.6487C15.341 11.6553 15.3475 11.6619 15.3539 11.6687C15.5065 11.83 15.6 12.0476 15.6 12.2871C15.6 12.412 15.5745 12.531 15.5285 12.6392C15.4878 12.7352 15.4296 12.8256 15.3539 12.9055C15.3475 12.9123 15.341 12.9189 15.3344 12.9255L10.8364 17.4235C10.4849 17.775 9.91507 17.775 9.5636 17.4235C9.21213 17.072 9.21213 16.5022 9.5636 16.1507L12.5272 13.1871H3.9C3.40294 13.1871 3 12.7842 3 12.2871C3 11.79 3.40294 11.3871 3.9 11.3871H12.5272L9.5636 8.42349C9.21213 8.07202 9.21213 7.50217 9.5636 7.1507Z" fill="white" fill-opacity="0.98"/>
</svg>
 