<svg width="249" height="250" viewBox="0 0 249 250" fill="none" xmlns="http://www.w3.org/2000/svg">
<path d="M25.3008 124.787C25.3008 151.203 35.7522 176.536 54.3558 195.215C72.9594 213.893 98.1913 224.387 124.501 224.387C150.81 224.387 176.042 213.893 194.646 195.215C213.249 176.536 223.701 151.203 223.701 124.787C223.701 98.3715 213.249 73.0378 194.646 54.3592C176.042 35.6806 150.81 25.187 124.501 25.187C98.1913 25.187 72.9594 35.6806 54.3558 54.3592C35.7522 73.0378 25.3008 98.3715 25.3008 124.787Z" fill="#D9EDFF"/>
<path d="M49.7651 50.3882H199.235C199.958 50.3882 200.652 50.6768 201.164 51.1904C201.675 51.7041 201.963 52.4008 201.963 53.1272V60.7441C201.963 61.4705 201.675 62.1672 201.164 62.6809C200.652 63.1945 199.958 63.4831 199.235 63.4831H49.7651C49.0416 63.4831 48.3477 63.1945 47.8361 62.6809C47.3245 62.1672 47.0371 61.4705 47.0371 60.7441V53.1347C47.0361 52.7743 47.106 52.4174 47.2426 52.0842C47.3793 51.751 47.5801 51.4482 47.8335 51.1931C48.0869 50.9379 48.388 50.7355 48.7194 50.5974C49.0509 50.4593 49.4062 50.3882 49.7651 50.3882Z" fill="#B0D9FF" stroke="#292B33" stroke-linecap="round" stroke-linejoin="round"/>
<path d="M195.809 162.635C195.809 163.362 195.522 164.058 195.01 164.572C194.498 165.086 193.805 165.374 193.081 165.374H55.937C55.2135 165.374 54.5196 165.086 54.008 164.572C53.4964 164.058 53.209 163.362 53.209 162.635V63.4883H195.809V162.635Z" fill="white"/>
<path d="M195.809 162.635C195.809 163.362 195.522 164.058 195.01 164.572C194.498 165.086 193.804 165.374 193.081 165.374H55.937C55.2135 165.374 54.5196 165.086 54.008 164.572C53.4964 164.058 53.209 163.362 53.209 162.635V63.4883H195.809V162.635Z" stroke="#292B33" stroke-linecap="round" stroke-linejoin="round"/>
<path d="M124.5 165.376V179.475" stroke="#292B33" stroke-linecap="round" stroke-linejoin="round"/>
<path d="M117.873 186.128C117.873 187.893 118.571 189.585 119.814 190.833C121.057 192.081 122.742 192.782 124.5 192.782C126.257 192.782 127.943 192.081 129.185 190.833C130.428 189.585 131.126 187.893 131.126 186.128C131.126 184.364 130.428 182.672 129.185 181.424C127.943 180.176 126.257 179.475 124.5 179.475C122.742 179.475 121.057 180.176 119.814 181.424C118.571 182.672 117.873 184.364 117.873 186.128Z" stroke="#292B33" stroke-linecap="round" stroke-linejoin="round"/>
<path d="M85.9648 205.936C85.9648 207.192 90.0247 208.397 97.2513 209.285C104.478 210.173 114.279 210.672 124.499 210.672C134.719 210.672 144.52 210.173 151.747 209.285C158.973 208.397 163.033 207.192 163.033 205.936C163.033 204.68 158.973 203.476 151.747 202.587C144.52 201.699 134.719 201.2 124.499 201.2C114.279 201.2 104.478 201.699 97.2513 202.587C90.0247 203.476 85.9648 204.68 85.9648 205.936Z" fill="#B0D9FF"/>
<path d="M110.797 85.1962C109.924 84.7272 108.945 84.4933 107.955 84.5173C106.966 84.5413 105.999 84.8225 105.15 85.3334C104.3 85.8443 103.598 86.5674 103.11 87.4323C102.622 88.2972 102.365 89.2743 102.365 90.2684V138.574C102.365 139.569 102.621 140.546 103.109 141.411C103.597 142.276 104.3 143 105.149 143.511C105.998 144.022 106.965 144.304 107.955 144.329C108.945 144.353 109.924 144.12 110.797 143.651L155.896 119.498C156.812 119.008 157.578 118.276 158.112 117.383C158.646 116.489 158.928 115.466 158.928 114.424C158.928 113.382 158.646 112.359 158.112 111.465C157.578 110.571 156.812 109.84 155.896 109.349L110.797 85.1962Z" fill="#B0D9FF"/>
<path d="M110.797 85.1962C109.924 84.7272 108.945 84.4933 107.955 84.5173C106.966 84.5413 105.999 84.8225 105.15 85.3334C104.3 85.8443 103.598 86.5674 103.11 87.4323C102.622 88.2972 102.365 89.2743 102.365 90.2684V138.574C102.365 139.569 102.621 140.546 103.109 141.411C103.597 142.276 104.3 143 105.149 143.511C105.998 144.022 106.965 144.304 107.955 144.329C108.945 144.353 109.924 144.12 110.797 143.651L155.896 119.498C156.812 119.008 157.578 118.276 158.112 117.383C158.646 116.489 158.928 115.466 158.928 114.424C158.928 113.382 158.646 112.359 158.112 111.465C157.578 110.571 156.812 109.84 155.896 109.349L110.797 85.1962Z" stroke="#292B33" stroke-linecap="round" stroke-linejoin="round"/>
</svg>
 